<svg width="553" height="581" viewBox="0 0 553 581" fill="none" xmlns="http://www.w3.org/2000/svg">
<path d="M466.962 470.402C466.962 484.834 455.264 496.538 440.826 496.538C426.394 496.538 414.695 484.835 414.695 470.402C414.695 455.969 426.393 444.266 440.826 444.266C455.263 444.266 466.962 455.969 466.962 470.402Z" fill="#3D91FF"/>
<path d="M551.338 453.974C551.338 451.735 550.593 450.24 550.593 448C549.848 445.761 549.848 443.521 549.098 441.281C549.098 439.787 548.353 439.042 548.353 437.547C547.609 435.307 546.859 432.318 545.369 430.078C545.369 429.333 544.624 428.583 544.624 427.839C543.129 424.854 542.385 422.609 540.89 419.625C540.89 418.88 540.89 418.88 540.145 418.13C538.65 415.146 537.161 412.156 535.666 409.917V409.172C534.171 406.187 531.931 403.943 529.692 400.958C527.452 397.974 525.213 395.729 522.973 393.489C520.734 391.25 518.494 389.01 515.504 386.771C513.265 384.531 510.275 382.291 508.035 380.052C499.077 373.333 489.369 368.104 478.915 364.369C478.171 364.369 476.676 363.624 475.931 363.624C474.436 362.88 472.197 362.88 470.702 362.13C469.207 361.385 467.717 361.385 466.223 360.635C464.728 360.635 463.238 359.89 461.743 359.89C459.504 359.145 457.264 359.145 455.769 359.145C454.275 359.145 453.53 359.145 452.035 358.4H440.827C425.144 358.4 410.963 361.385 397.52 367.359C387.812 371.838 378.108 377.067 369.895 383.785C361.681 390.504 354.212 398.717 348.244 407.681C335.551 425.599 328.828 447.255 328.828 470.4C328.828 474.135 328.828 477.119 329.573 480.853C329.573 482.348 329.573 483.093 330.318 484.588C330.318 486.827 331.063 489.067 331.063 490.562C331.063 492.056 331.807 493.546 331.807 495.041C331.807 496.536 332.552 498.025 333.302 499.52C334.047 501.015 334.047 503.254 334.797 504.749C334.797 505.494 335.542 506.989 335.542 507.734C340.771 521.171 348.234 533.87 357.943 544.322C364.662 551.79 372.131 558.51 381.088 563.734C384.073 565.228 386.318 566.718 389.302 568.213C389.302 568.213 390.047 568.213 390.047 568.958C393.031 570.452 395.276 571.197 398.26 572.692C399.005 572.692 399.755 573.437 400.5 573.437C402.74 574.182 405.729 575.676 407.969 576.421C409.464 576.421 410.208 577.166 411.703 577.166C413.943 577.911 416.182 578.661 418.422 578.661C420.662 579.406 422.156 579.406 424.396 579.406C425.891 579.406 427.38 580.15 429.625 580.15C433.36 580.15 437.094 580.895 440.823 580.895C463.968 580.895 485.626 574.176 503.542 561.483C512.5 555.509 520.714 548.046 527.438 539.832C534.156 531.619 540.13 521.911 543.864 512.207C549.844 500.264 552.828 486.082 552.828 470.4C552.828 466.666 552.828 462.932 552.083 459.203C552.083 457.708 552.083 456.214 551.338 453.974ZM500.562 477.87L481.895 482.349C481.15 486.084 479.656 489.068 477.416 492.058L487.869 507.74L478.161 517.443L462.483 507.735C459.499 509.23 455.765 510.72 452.775 512.214L448.296 530.136H434.108L429.629 511.469C425.894 510.724 422.91 509.229 419.92 506.99L403.494 517.443L393.791 507.735L404.244 492.052C402.749 489.068 401.259 485.333 399.765 481.599L381.098 477.87V462.932L399.765 458.453C400.509 454.719 402.004 451.734 404.244 448L393.791 433.068L403.499 423.36L419.182 433.813C422.166 432.318 425.9 430.828 428.89 429.334L433.369 410.667H448.296L452.775 429.334C456.509 430.078 459.494 431.573 462.483 433.813L478.166 423.36L487.874 433.068L478.161 449.495C479.655 452.479 481.145 456.213 482.64 459.203L500.561 462.932L500.562 477.87Z" fill="#3D91FF"/>
<path d="M343.762 67.2012H134.695C134.695 72.4304 135.44 77.6542 136.19 82.1332H344.51C343.765 77.654 343.765 72.4249 343.765 67.2012H343.762Z" fill="#3D91FF"/>
<path d="M142.159 14.932C151.117 14.932 160.08 29.864 163.81 52.2653H178.742C175.007 21.6507 160.82 0 142.154 0C120.503 0 104.82 29.12 104.82 67.1973C104.82 72.4265 104.82 77.6504 105.565 82.1293C109.3 112.744 123.486 134.395 142.153 134.395V119.463C133.195 119.463 124.232 104.531 120.502 82.1293C119.758 77.6501 119.758 72.4211 119.758 67.1973C119.763 37.3333 131.706 14.932 142.159 14.932Z" fill="#3D91FF"/>
<path d="M396.026 14.932C404.985 14.932 413.948 29.864 417.677 52.2653H432.609C428.874 21.6507 414.688 0 396.021 0C374.37 0 358.688 29.12 358.688 67.1973C358.688 72.4265 358.688 77.6504 359.432 82.1293C363.167 112.744 377.354 134.395 396.02 134.395V119.463C387.062 119.463 378.099 104.531 374.37 82.1293C373.625 77.6501 373.625 72.4211 373.625 67.1973C373.625 37.3333 385.573 14.932 396.026 14.932Z" fill="#3D91FF"/>
<path d="M201.891 283.735C201.891 296.105 191.865 306.137 179.49 306.137C167.12 306.137 157.094 296.105 157.094 283.735C157.094 271.365 167.12 261.334 179.49 261.334C191.865 261.334 201.891 271.365 201.891 283.735Z" fill="#3D91FF"/>
<path d="M366.165 283.735C366.165 296.105 356.139 306.137 343.769 306.137C331.394 306.137 321.367 296.105 321.367 283.735C321.367 271.365 331.393 261.334 343.769 261.334C356.138 261.334 366.165 271.365 366.165 283.735Z" fill="#3D91FF"/>
<path d="M448.295 283.735C448.295 296.105 438.264 306.137 425.894 306.137C413.524 306.137 403.492 296.105 403.492 283.735C403.492 271.365 413.523 261.334 425.894 261.334C438.263 261.334 448.295 271.365 448.295 283.735Z" fill="#3D91FF"/>
<path d="M284.029 283.735C284.029 296.105 273.998 306.137 261.628 306.137C249.258 306.137 239.227 296.105 239.227 283.735C239.227 271.365 249.258 261.334 261.628 261.334C273.998 261.334 284.029 271.365 284.029 283.735Z" fill="#3D91FF"/>
<path d="M119.764 365.868C119.764 378.238 109.732 388.264 97.3623 388.264C84.9925 388.264 74.9609 378.238 74.9609 365.868C74.9609 353.493 84.9921 343.467 97.3623 343.467C109.732 343.467 119.764 353.493 119.764 365.868Z" fill="#3D91FF"/>
<path d="M201.891 365.868C201.891 378.238 191.865 388.264 179.49 388.264C167.12 388.264 157.094 378.238 157.094 365.868C157.094 353.493 167.12 343.467 179.49 343.467C191.865 343.467 201.891 353.493 201.891 365.868Z" fill="#3D91FF"/>
<path d="M284.029 365.868C284.029 378.238 273.998 388.264 261.628 388.264C249.258 388.264 239.227 378.238 239.227 365.868C239.227 353.493 249.258 343.467 261.628 343.467C273.998 343.467 284.029 353.493 284.029 365.868Z" fill="#3D91FF"/>
<path d="M119.764 448.001C119.764 460.371 109.732 470.402 97.3623 470.402C84.9925 470.402 74.9609 460.371 74.9609 448.001C74.9609 435.631 84.9921 425.6 97.3623 425.6C109.732 425.6 119.764 435.631 119.764 448.001Z" fill="#3D91FF"/>
<path d="M201.891 448.001C201.891 460.371 191.865 470.402 179.49 470.402C167.12 470.402 157.094 460.371 157.094 448.001C157.094 435.631 167.12 425.6 179.49 425.6C191.865 425.6 201.891 435.631 201.891 448.001Z" fill="#3D91FF"/>
<path d="M284.029 448.001C284.029 460.371 273.998 470.402 261.628 470.402C249.258 470.402 239.227 460.371 239.227 448.001C239.227 435.631 249.258 425.6 261.628 425.6C273.998 425.6 284.029 435.631 284.029 448.001Z" fill="#3D91FF"/>
<path d="M30.1615 537.601C21.9479 537.601 15.2295 530.883 15.2295 522.669V194.136H508.03V345.709C513.259 348.694 518.483 351.683 522.962 355.418V97.071C522.962 80.6444 509.524 67.207 493.098 67.207H388.562C388.562 72.4362 389.306 77.6601 390.056 82.139H493.098C501.311 82.139 508.03 88.8578 508.03 97.071V179.207H15.2297V97.071C15.2297 88.8574 21.9485 82.139 30.1617 82.139H90.6403C89.8955 77.6598 89.8956 72.4308 89.8956 67.207H30.1609C13.7342 67.207 0.296875 80.6444 0.296875 97.071V522.671C0.296875 539.098 13.7342 552.535 30.1609 552.535H325.094C321.36 548.056 318.375 542.827 315.386 537.603L30.1615 537.601Z" fill="#3D91FF"/>
</svg>
